# xmcd CD database file
#
# Track frame offsets:
#	150
#	13900
#	31682
#	43730
#	57477
#	73205
#	85517
#	99925
#	111647
#	122410
#	133477
#	143557
#	156152
#	165167
#	190527
#	202615
#	213345
#
# Disc length: 2978 seconds
#
# Revision: 1
# Processed by: cddbd v1.5PL3 Copyright (c) Steve Scherf et al.
# Submitted via: CDex 1.50
#
DISCID=e10ba011
DTITLE=映画主題歌 - 西部劇テーマのすべて DISC・１
DYEAR=2000
DGENRE=Country
TTITLE0=明日に向かって撃て「雨にぬれても」
TTITLE1=アラモ「遥かなるアラモ」
TTITLE2=駅馬車
TTITLE3=OK牧場の決闘
TTITLE4=大いなる西部
TTITLE5=帰らざる河
TTITLE6=ガン・クレイジー
TTITLE7=ガンマン無頼
TTITLE8=黄色いリボン
TTITLE9=騎兵隊「騎兵隊マーチ」
TTITLE10=続・荒野の用心棒「さすらいのジャンゴ」
TTITLE11=荒野の１ドル銀貨
TTITLE12=荒野の決闘「いとしのクレメンタイン」
TTITLE13=荒野の七人
TTITLE14=荒野の用心棒「さすらいの口笛」
TTITLE15=腰抜け二挺拳銃「ボタンとリボン」
TTITLE16=さすらいの一匹狼
EXTD=YEAR: 2000
EXTT0=
EXTT1=
EXTT2=
EXTT3=
EXTT4=
EXTT5=
EXTT6=
EXTT7=
EXTT8=
EXTT9=
EXTT10=
EXTT11=
EXTT12=
EXTT13=
EXTT14=
EXTT15=
EXTT16=
PLAYORDER=
